<svg xmlns="http://www.w3.org/2000/svg" viewBox="0 0 512 512">
  <path d="M476.9 35.1a120 120 0 00-169.8 0L207 135.4a121.1 121.1 0 000 169.7c7.3 7.4 15.5 13.4 24 18.4l18.4-18.4c12-12 7.8-26 7.5-36.1a60.6 60.6 0 01-7.6-91.1L349.7 77.6a60 60 0 0184.8 84.8l-66.3 66.3c2 10.6 13.5 35.8 7.5 77.2l1-.8L476.9 205a120 120 0 000-169.8z"/>
  <path d="M313 199a114.2 114.2 0 00-24.2-18.2L270.5 199c-12 12-7.8 26-7.6 36.2 2.7 1.8 5.2 3.8 7.6 6.2a60.6 60.6 0 010 84.9l-108 108a60 60 0 01-85-84.8l74.1-74.1c-1.9-10.6-13.4-35.7-7.5-77.2l-.9.8-108 108A120 120 0 00204.8 477l108-108.1a121 121 0 000-169.7z"/>
</svg>
